<svg width="50" height="50" viewBox="0 0 50 50" fill="none" xmlns="http://www.w3.org/2000/svg">
<path d="M1.66504 11.9546V48.3371H38.0834L48.4886 37.9421L12.0703 1.55957L1.66504 11.9546Z" fill="white"/>
<path d="M48.4887 1.55957H12.0703V36.3829C12.0703 37.2664 12.7467 37.9421 13.6311 37.9421H48.4887V1.55957Z" fill="#71C2FF"/>
<path d="M44.3786 5.66504C43.7543 5.04134 42.7658 5.04134 42.1935 5.66504L37.4591 10.3948H9.46899C8.58454 10.3948 7.9082 11.0704 7.9082 11.954C7.9082 12.8376 8.58454 13.5133 9.46899 13.5133H36.5226V40.5403C36.5226 41.4239 37.199 42.0996 38.0834 42.0996C38.9679 42.0996 39.6442 41.4239 39.6442 40.5403V12.5777L44.3786 7.84799C45.0029 7.22429 45.0029 6.28874 44.3786 5.66504Z" fill="#444B54"/>
<path d="M48.4884 0H12.0701C11.966 0 11.862 1.97495e-07 11.7579 0.0519753C11.7059 0.0519753 11.6539 0.103951 11.6018 0.103951C11.5498 0.103951 11.4978 0.155925 11.4458 0.155925C11.3937 0.155925 11.3417 0.2079 11.2897 0.259875C11.2377 0.259875 11.1856 0.311851 11.1856 0.311851C11.0816 0.363826 11.0296 0.4158 10.9255 0.519751L0.520262 10.9148C0.468235 10.9667 0.364183 11.0707 0.312157 11.1746C0.312157 11.2266 0.260131 11.2266 0.260131 11.2786C0.208104 11.3306 0.208105 11.3825 0.156079 11.4345C0.156079 11.4865 0.104052 11.5385 0.104052 11.5904C0.104052 11.6424 0.0520259 11.6944 0.0520259 11.7464C0.0520259 11.8503 0 11.9543 0 12.0582V48.4407C0 49.3243 0.67634 50 1.56079 50H37.9791C38.0832 50 38.1872 50 38.2913 49.948C38.3433 49.948 38.3953 49.8961 38.4474 49.8961C38.4994 49.8961 38.5514 49.8441 38.6034 49.8441C38.6555 49.8441 38.7075 49.7921 38.7595 49.7401C38.8115 49.7401 38.8636 49.6882 38.8636 49.6882C38.9676 49.6362 39.0197 49.5842 39.1237 49.4802L49.5289 39.0852C49.8411 38.7734 49.9972 38.4096 49.9972 37.9938V1.55925C50.0492 0.675676 49.3729 0 48.4884 0ZM46.9276 37.3181L37.4589 46.7775H3.22562V12.578L12.6944 3.1185H46.9276V37.3181Z" fill="#444B54"/>
</svg>
